<svg xmlns="http://www.w3.org/2000/svg" width="762" height="156" viewBox="0 0 762 156" role="img" aria-label="АВИАТОР"><defs><style>.cream{fill:#F4F0E7}.gold{fill:#E2C25C}.line-gold{stroke:#C9A227}.line-steel{stroke:#536071}.word{font-family:Georgia,'Times New Roman',serif;font-size:58px;font-weight:700;letter-spacing:17px}.ab{font-family:Georgia,'Times New Roman',serif;font-size:31px;font-weight:700}</style></defs><g fill="none" stroke-linecap="square"><path class="line-gold" d="M76 57H158" stroke-width="1.5"/><path class="line-gold" d="M250 57H332" stroke-width="1.5"/><path class="line-steel" d="M48 73H164" stroke-width="1" opacity=".78"/><path class="line-steel" d="M244 73H360" stroke-width="1" opacity=".78"/></g><path d="M170 21H237C242 21 245 25 245 30V91C245 117 222 137 204 137C186 137 163 117 163 91V30C163 25 166 21 170 21Z" fill="none" stroke="#C9A227" stroke-width="2"/><path d="M179 124C186 132 196 137 204 137C212 137 222 132 229 124" fill="none" stroke="#C9A227" stroke-width="2" opacity=".85"/><text class="ab gold" x="204" y="86" text-anchor="middle" dominant-baseline="middle">AB</text><text class="word cream" x="356" y="98">АВИАТОР</text></svg>