<svg xmlns="http://www.w3.org/2000/svg" width="762" height="156" viewBox="0 0 762 156" role="img" aria-label="АВИАТОР"><defs><radialGradient id="bg" cx="50%" cy="50%" r="70%"><stop offset="0" stop-color="#0A1529"/><stop offset="1" stop-color="#071121"/></radialGradient><linearGradient id="goldLine" x1="0" y1="0" x2="1" y2="0"><stop offset="0" stop-color="#6F5A18" stop-opacity=".05"/><stop offset=".55" stop-color="#E2C25C"/><stop offset="1" stop-color="#6F5A18" stop-opacity=".05"/></linearGradient><linearGradient id="steelLine" x1="0" y1="0" x2="1" y2="0"><stop offset="0" stop-color="#243145" stop-opacity=".05"/><stop offset=".55" stop-color="#5D6B7E"/><stop offset="1" stop-color="#243145" stop-opacity=".05"/></linearGradient><linearGradient id="wordFill" x1="0" y1="0" x2="0" y2="1"><stop offset="0" stop-color="#FFFDF6"/><stop offset="1" stop-color="#E9E1D2"/></linearGradient><linearGradient id="goldFill" x1="0" y1="0" x2="0" y2="1"><stop offset="0" stop-color="#F0CE55"/><stop offset="1" stop-color="#B99018"/></linearGradient><style>.word{font-family:Georgia,'Times New Roman',serif;font-size:57px;font-weight:700;letter-spacing:17px}.ab{font-family:Georgia,'Times New Roman',serif;font-size:31px;font-weight:700}</style></defs><rect width="762" height="156" fill="url(#bg)"/><g fill="none" stroke-linecap="square"><path d="M76 57H158" stroke="url(#goldLine)" stroke-width="2"/><path d="M250 57H332" stroke="url(#goldLine)" stroke-width="2"/><path d="M48 73H164" stroke="url(#steelLine)" stroke-width="1.4" opacity=".9"/><path d="M244 73H360" stroke="url(#steelLine)" stroke-width="1.4" opacity=".9"/></g><path d="M170 21H237C242 21 245 25 245 30V90C245 116 222 136 204 136C186 136 163 116 163 90V30C163 25 166 21 170 21Z" fill="none" stroke="#C9A227" stroke-width="2.4"/><path d="M179 124C186 132 196 136 204 136C212 136 222 132 229 124" fill="none" stroke="#C9A227" stroke-width="1.8" opacity=".8"/><text class="ab" x="204" y="80" text-anchor="middle" dominant-baseline="middle" fill="url(#goldFill)">AB</text><text class="word" x="356" y="98" fill="url(#wordFill)">АВИАТОР</text></svg>