<svg xmlns="http://www.w3.org/2000/svg" viewBox="0 0 64 64" role="img" aria-label="АВИАТОР favicon">
  <defs>
    <radialGradient id="bg" cx="50%" cy="38%" r="78%">
      <stop offset="0" stop-color="#0B1A30"/>
      <stop offset="0.62" stop-color="#071121"/>
      <stop offset="1" stop-color="#040914"/>
    </radialGradient>
    <linearGradient id="gold" x1="14" y1="8" x2="50" y2="58" gradientUnits="userSpaceOnUse">
      <stop offset="0" stop-color="#F0D36A"/>
      <stop offset="0.46" stop-color="#C9A227"/>
      <stop offset="1" stop-color="#80610D"/>
    </linearGradient>
    <linearGradient id="goldText" x1="21" y1="24" x2="43" y2="43" gradientUnits="userSpaceOnUse">
      <stop offset="0" stop-color="#FFE487"/>
      <stop offset="0.58" stop-color="#D2A82B"/>
      <stop offset="1" stop-color="#8C690B"/>
    </linearGradient>
    <linearGradient id="lineFadeLeft" x1="6" y1="0" x2="26" y2="0" gradientUnits="userSpaceOnUse">
      <stop offset="0" stop-color="#C9A227" stop-opacity="0"/>
      <stop offset="1" stop-color="#E2C25C" stop-opacity="0.95"/>
    </linearGradient>
    <linearGradient id="lineFadeRight" x1="38" y1="0" x2="58" y2="0" gradientUnits="userSpaceOnUse">
      <stop offset="0" stop-color="#E2C25C" stop-opacity="0.95"/>
      <stop offset="1" stop-color="#C9A227" stop-opacity="0"/>
    </linearGradient>
  </defs>

  <rect width="64" height="64" rx="12" fill="url(#bg)"/>

  <path d="M6 31.5H25" stroke="url(#lineFadeLeft)" stroke-width="1.4" stroke-linecap="round"/>
  <path d="M39 31.5H58" stroke="url(#lineFadeRight)" stroke-width="1.4" stroke-linecap="round"/>
  <path d="M8 35.5H25" stroke="#6D7890" stroke-opacity="0.62" stroke-width="1" stroke-linecap="round"/>
  <path d="M39 35.5H56" stroke="#6D7890" stroke-opacity="0.62" stroke-width="1" stroke-linecap="round"/>

  <path d="M22 8.5H42C44.2 8.5 46 10.3 46 12.5V37.8C46 49.5 32 56.5 32 56.5S18 49.5 18 37.8V12.5C18 10.3 19.8 8.5 22 8.5Z" fill="#071121" fill-opacity="0.7" stroke="url(#gold)" stroke-width="2.1"/>
  <path d="M22.3 10.7H41.7C42.9 10.7 43.8 11.6 43.8 12.8V37.2C43.8 46.5 34.6 52.5 32 53.9C29.4 52.5 20.2 46.5 20.2 37.2V12.8C20.2 11.6 21.1 10.7 22.3 10.7Z" fill="none" stroke="#F4D875" stroke-opacity="0.22" stroke-width="0.8"/>

  <text x="32" y="39.2" text-anchor="middle" font-family="Georgia, 'Times New Roman', serif" font-size="18" font-weight="700" letter-spacing="-1.4" fill="url(#goldText)">AB</text>
</svg>
